<svg width="23"
    height="23"
    viewBox="0 0 23 23"
    fill="none"
    xmlns="http://www.w3.org/2000/svg">
    <path d="M18.7535 6.59649C18.6627 6.59649 18.5855 6.57832 18.5219 6.54197C18.4583 6.50563 18.4083 6.44202 18.3719 6.35116L17.5815 4.49761L15.5916 3.62534C15.5008 3.589 15.4372 3.53902 15.4008 3.47542C15.3645 3.41182 15.3463 3.33459 15.3463 3.24373C15.3463 3.15287 15.3645 3.07563 15.4008 3.01203C15.4372 2.94843 15.5008 2.89846 15.5916 2.86211L17.5815 2.01711L18.3719 0.245324C18.4083 0.154463 18.4583 0.0908607 18.5219 0.0545164C18.5855 0.0181721 18.6627 0 18.7535 0C18.8444 0 18.9216 0.0181721 18.9852 0.0545164C19.0488 0.0908607 19.0988 0.154463 19.1352 0.245324L19.9256 2.01711L21.9155 2.86211C22.0063 2.89846 22.0699 2.94843 22.1063 3.01203C22.1426 3.07563 22.1608 3.15287 22.1608 3.24373C22.1608 3.33459 22.1426 3.41182 22.1063 3.47542C22.0699 3.53902 22.0063 3.589 21.9155 3.62534L19.9256 4.49761L19.1352 6.35116C19.0988 6.44202 19.0488 6.50563 18.9852 6.54197C18.9216 6.57832 18.8444 6.59649 18.7535 6.59649ZM18.7535 22.8424C18.6809 22.8424 18.6082 22.8242 18.5355 22.7879C18.4628 22.7515 18.4083 22.6879 18.3719 22.5971L17.5815 20.8253L15.6189 19.9803C15.528 19.9439 15.4644 19.894 15.4281 19.8304C15.3917 19.7667 15.3735 19.6895 15.3735 19.5987C15.3735 19.5078 15.3917 19.4306 15.4281 19.367C15.4644 19.3034 15.528 19.2534 15.6189 19.217L17.5815 18.372L18.3719 16.4912C18.4083 16.4004 18.4583 16.3368 18.5219 16.3004C18.5855 16.2641 18.6627 16.2459 18.7535 16.2459C18.8444 16.2459 18.9216 16.2641 18.9852 16.3004C19.0488 16.3368 19.0988 16.4004 19.1352 16.4912L19.9256 18.372L21.8882 19.217C21.9791 19.2534 22.0427 19.3034 22.079 19.367C22.1154 19.4306 22.1335 19.5078 22.1335 19.5987C22.1335 19.6895 22.1154 19.7667 22.079 19.8304C22.0427 19.894 21.9791 19.9439 21.8882 19.9803L19.9256 20.8253L19.1352 22.5971C19.0988 22.6879 19.0443 22.7515 18.9716 22.7879C18.8989 22.8242 18.8262 22.8424 18.7535 22.8424ZM6.78726 18.1267C6.64188 18.1267 6.50105 18.0858 6.36476 18.004C6.22847 17.9223 6.12398 17.8087 6.05129 17.6633L4.27952 13.8744L0.463387 12.1572C0.318011 12.0845 0.204435 11.98 0.122661 11.8437C0.0408871 11.7074 0 11.5666 0 11.4212C0 11.2758 0.0408871 11.135 0.122661 10.9987C0.204435 10.8624 0.318011 10.7579 0.463387 10.6852L4.27952 8.96795L6.05129 5.20632C6.12398 5.04277 6.22847 4.92011 6.36476 4.83833C6.50105 4.75656 6.64188 4.71567 6.78726 4.71567C6.93263 4.71567 7.07347 4.75656 7.20976 4.83833C7.34605 4.92011 7.45054 5.03368 7.52323 5.17906L9.32226 8.96795L13.1111 10.6852C13.2747 10.7579 13.3973 10.8624 13.4791 10.9987C13.5609 11.135 13.6018 11.2758 13.6018 11.4212C13.6018 11.5666 13.5609 11.7074 13.4791 11.8437C13.3973 11.98 13.2747 12.0845 13.1111 12.1572L9.32226 13.8744L7.52323 17.6633C7.45054 17.8269 7.34605 17.945 7.20976 18.0177C7.07347 18.0904 6.93263 18.1267 6.78726 18.1267Z"
        fill="white"/>
</svg>
